<?xml version="1.0" standalone="no"?>
<!DOCTYPE svg PUBLIC "-//W3C//DTD SVG 20010904//EN"
 "http://www.w3.org/TR/2001/REC-SVG-20010904/DTD/svg10.dtd">
<svg version="1.0" xmlns="http://www.w3.org/2000/svg"
 width="260.000000pt" height="260.000000pt" viewBox="0 0 260.000000 260.000000"
 preserveAspectRatio="xMidYMid meet">
<metadata>
Created by potrace 1.11, written by Peter Selinger 2001-2013
</metadata>
<g transform="translate(0.000000,260.000000) scale(0.100000,-0.100000)"
fill="#000000" stroke="none">
<path d="M1190 2590 c-482 -45 -908 -357 -1088 -798 -255 -626 15 -1336 623
-1639 185 -93 369 -135 585 -135 605 0 1118 396 1266 979 22 86 24 116 24 308
0 192 -2 222 -24 308 -94 371 -338 673 -681 844 -210 105 -472 154 -705 133z
m822 -701 c29 -6 70 -20 91 -31 34 -17 40 -17 60 -3 31 22 72 19 104 -9 l28
-24 0 -142 0 -142 -28 -24 c-57 -49 -118 -24 -142 61 -21 69 -63 111 -134 132
-106 30 -228 -2 -271 -73 -24 -38 -25 -65 -5 -104 23 -45 70 -65 239 -104 87
-19 182 -46 210 -59 101 -47 165 -136 173 -242 6 -72 -7 -125 -45 -186 -98
-153 -391 -206 -590 -105 l-47 24 -28 -24 c-36 -31 -78 -31 -114 0 l-28 24 0
132 0 132 28 24 c15 13 41 24 56 24 36 0 77 -32 86 -67 12 -50 36 -74 103
-106 61 -29 76 -32 162 -32 78 1 103 5 143 24 86 42 115 98 82 160 -20 40 -80
66 -219 95 -230 49 -311 92 -370 196 -28 49 -31 64 -31 135 0 90 18 135 82
206 89 99 248 141 405 108z m-1056 -42 c31 -36 31 -78 0 -114 -23 -26 -30 -28
-115 -31 l-91 -4 0 -354 0 -354 194 0 194 0 4 121 c3 118 4 121 31 145 36 31
78 31 114 0 l28 -24 3 -211 3 -212 -461 3 -462 3 -24 28 c-31 36 -31 78 0 114
23 26 31 28 110 32 l86 3 0 353 0 353 -86 3 c-79 4 -87 6 -110 32 -39 46 -25
115 30 137 11 5 135 8 274 7 l254 -2 24 -28z"/>
</g>
</svg>
